<svg width="31" height="32" viewBox="0 0 31 32" fill="none" xmlns="http://www.w3.org/2000/svg">
<g clip-path="url(#clip0_978_11418)">
<rect width="30.8966" height="32" rx="6.62069" fill="#8300FF"/>
<path d="M28.2298 10.5526C28.6298 11.2578 28.9441 11.9913 29.1155 12.6965C29.3155 13.4017 29.4013 14.1633 29.4013 14.9531V15.6865C29.4013 16.6174 29.287 17.52 29.0584 18.3381C28.8012 19.1843 28.3441 20.0587 27.6298 20.9614C26.944 21.8358 26.0297 22.5975 24.9154 23.218C23.8582 23.8386 22.3724 24.3464 20.5437 24.7413C18.7437 25.108 16.6293 25.3054 14.2863 25.3054H0V5.55982H14.2578C16.2007 5.55982 18.0008 5.70086 19.5723 5.92653C21.1723 6.1804 22.5153 6.5189 23.601 6.99843C24.6582 7.44976 25.6011 7.9575 26.3726 8.52166C27.1726 9.11403 27.8012 9.79102 28.2298 10.5526ZM21.4866 15.4608V15.3198C21.4866 14.2761 21.4866 11.0886 13.7435 11.0886H7.60033V19.7202H13.7435C21.4866 19.7202 21.4866 16.5327 21.4866 15.4608Z" fill="white"/>
<path d="M38.6543 17.9149V19.8895H54.0264V25.3054H31.1397V5.55982H54.0264V10.9193H38.6543V12.5554H54.0264V17.9149H38.6543Z" fill="white"/>
<path d="M67.0183 19.7767H80.1046V25.3054H55.8464V21.046L68.3898 11.004H56.0464V5.55982H79.9046V9.81923L67.0183 19.7767Z" fill="white"/>
<path d="M116.966 0L101.122 15.2352L116.966 32L102.065 25.3054L96.0361 19.7485L90.0644 25.3054H80.5782L91.293 15.348L80.7783 5.55982H90.9787L96.4932 10.8065L102.036 5.55982L116.966 0Z" fill="white"/>
</g>
<defs>
<clipPath id="clip0_978_11418">
<rect width="30.8966" height="32" rx="6.62069" fill="white"/>
</clipPath>
</defs>
</svg>
